HIERARCHY
ROOT hip
{
  OFFSET 0 0 0
  CHANNELS 6 Xposition Yposition Zposition Zrotation Yrotation Xrotation
  JOINT abdomen
  {
    OFFSET 0 20.6881 -0.73152
    CHANNELS 3 Zrotation Xrotation Yrotation
    JOINT chest
    {
      OFFSET 0 11.7043 -0.48768
      CHANNELS 3 Zrotation Xrotation Yrotation
      JOINT neck
      {
        OFFSET 0 22.1894 -2.19456
        CHANNELS 3 Zrotation Xrotation Yrotation
        JOINT head
        {
          OFFSET -0.24384 7.07133 1.2192
          CHANNELS 3 Zrotation Xrotation Yrotation
          JOINT leftEye
          {
            OFFSET 4.14528 8.04674 8.04672
            CHANNELS 3 Zrotation Xrotation Yrotation
            End Site
            {
              OFFSET 1 0 0
            }
          }
          JOINT rightEye
          {
            OFFSET -3.6576 8.04674 8.04672
            CHANNELS 3 Zrotation Xrotation Yrotation
            End Site
            {
              OFFSET 1 0 0
            }
          }
        }
      }
      JOINT rCollar
      {
        OFFSET -2.68224 19.2634 -4.8768
        CHANNELS 3 Zrotation Xrotation Yrotation
        JOINT rShldr
        {
          OFFSET -8.77824 -1.95073 1.46304
          CHANNELS 3 Zrotation Xrotation Yrotation
          JOINT rForeArm
          {
            OFFSET -28.1742 -1.7115 0.48768
            CHANNELS 3 Zrotation Xrotation Yrotation
            JOINT rHand
            {
              OFFSET -22.5879 0.773209 7.07136
              CHANNELS 3 Zrotation Xrotation Yrotation
              JOINT rThumb1
              {
                OFFSET -1.2192 -0.487915 3.41376
                CHANNELS 3 Zrotation Xrotation Yrotation
                JOINT rThumb2
                {
                  OFFSET -3.37035 -0.52449 3.41376
                  CHANNELS 3 Zrotation Xrotation Yrotation
                  End Site
                  {
                    OFFSET -1.78271 -1.18214 1.43049
                  }
                }
              }
              JOINT rIndex1
              {
                OFFSET -7.75947 0.938293 5.60832
                CHANNELS 3 Zrotation Xrotation Yrotation
                JOINT rIndex2
                {
                  OFFSET -2.54057 -0.884171 1.56538
                  CHANNELS 3 Zrotation Xrotation Yrotation
                  End Site
                  {
                    OFFSET -1.62519 -0.234802 1.16502
                  }
                }
              }
              JOINT rMid1
              {
                OFFSET -8.24714 1.18213 3.41376
                CHANNELS 3 Zrotation Xrotation Yrotation
                JOINT rMid2
                {
                  OFFSET -3.10165 -0.590103 1.0647
                  CHANNELS 3 Zrotation Xrotation Yrotation
                  End Site
                  {
                    OFFSET -2.48547 -0.328903 0.83742
                  }
                }
              }
              JOINT rRing1
              {
                OFFSET -8.82822 0.546677 1.51678
                CHANNELS 3 Zrotation Xrotation Yrotation
                JOINT rRing2
                {
                  OFFSET -2.60934 -0.819778 -0.0198488
                  CHANNELS 3 Zrotation Xrotation Yrotation
                  End Site
                  {
                    OFFSET -2.33842 -0.294052 0.168128
                  }
                }
              }
              JOINT rPinky1
              {
                OFFSET -8.27202 -0.0477905 -0.4584
                CHANNELS 3 Zrotation Xrotation Yrotation
                JOINT rPinky2
                {
                  OFFSET -1.82734 -0.647385 -0.700984
                  CHANNELS 3 Zrotation Xrotation Yrotation
                  End Site
                  {
                    OFFSET -1.69225 -0.51767 -0.607171
                  }
                }
              }
            }
          }
        }
      }
      JOINT lCollar
      {
        OFFSET 2.68224 19.2634 -4.8768
        CHANNELS 3 Zrotation Xrotation Yrotation
        JOINT lShldr
        {
          OFFSET 8.77824 -1.95073 1.46304
          CHANNELS 3 Zrotation Xrotation Yrotation
          JOINT lForeArm
          {
            OFFSET 28.1742 -1.7115 0.48768
            CHANNELS 3 Zrotation Xrotation Yrotation
            JOINT lHand
            {
              OFFSET 22.5879 0.773209 7.07136
              CHANNELS 3 Zrotation Xrotation Yrotation
              JOINT lThumb1
              {
                OFFSET 1.2192 -0.487915 3.41376
                CHANNELS 3 Zrotation Xrotation Yrotation
                JOINT lThumb2
                {
                  OFFSET 3.37035 -0.52449 3.41376
                  CHANNELS 3 Zrotation Xrotation Yrotation
                  End Site
                  {
                    OFFSET 1.78271 -1.18214 1.43049
                  }
                }
              }
              JOINT lIndex1
              {
                OFFSET 7.75947 0.938293 5.60832
                CHANNELS 3 Zrotation Xrotation Yrotation
                JOINT lIndex2
                {
                  OFFSET 2.54057 -0.884171 1.56538
                  CHANNELS 3 Zrotation Xrotation Yrotation
                  End Site
                  {
                    OFFSET 1.62519 -0.234802 1.16502
                  }
                }
              }
              JOINT lMid1
              {
                OFFSET 8.24714 1.18213 3.41376
                CHANNELS 3 Zrotation Xrotation Yrotation
                JOINT lMid2
                {
                  OFFSET 3.10165 -0.590103 1.0647
                  CHANNELS 3 Zrotation Xrotation Yrotation
                  End Site
                  {
                    OFFSET 2.48547 -0.328903 0.83742
                  }
                }
              }
              JOINT lRing1
              {
                OFFSET 8.82822 0.546677 1.51678
                CHANNELS 3 Zrotation Xrotation Yrotation
                JOINT lRing2
                {
                  OFFSET 2.60934 -0.819778 -0.0198488
                  CHANNELS 3 Zrotation Xrotation Yrotation
                  End Site
                  {
                    OFFSET 2.33842 -0.294052 0.168128
                  }
                }
              }
              JOINT lPinky1
              {
                OFFSET 8.27202 -0.0477905 -0.4584
                CHANNELS 3 Zrotation Xrotation Yrotation
                JOINT lPinky2
                {
                  OFFSET 1.82734 -0.647385 -0.700984
                  CHANNELS 3 Zrotation Xrotation Yrotation
                  End Site
                  {
                    OFFSET 1.69225 -0.51767 -0.607171
                  }
                }
              }
            }
          }
        }
      }
    }
  }
  JOINT rButtock
  {
    OFFSET -8.77824 4.35084 1.2192
    CHANNELS 3 Zrotation Xrotation Yrotation
    JOINT rThigh
    {
      OFFSET 0 -1.70687 -2.19456
      CHANNELS 3 Zrotation Xrotation Yrotation
      JOINT rShin
      {
        OFFSET 0 -36.8199 0.73152
        CHANNELS 3 Zrotation Xrotation Yrotation
        JOINT rFoot
        {
          OFFSET 0.73152 -45.1104 -5.12064
          CHANNELS 3 Zrotation Xrotation Yrotation
          End Site
          {
            OFFSET -1.1221 -3.69964 12.103
          }
        }
      }
    }
  }
  JOINT lButtock
  {
    OFFSET 8.77824 4.35084 1.2192
    CHANNELS 3 Zrotation Xrotation Yrotation
    JOINT lThigh
    {
      OFFSET 0 -1.70687 -2.19456
      CHANNELS 3 Zrotation Xrotation Yrotation
      JOINT lShin
      {
        OFFSET 0 -36.8199 0.73152
        CHANNELS 3 Zrotation Xrotation Yrotation
        JOINT lFoot
        {
          OFFSET -0.73152 -45.1104 -5.12064
          CHANNELS 3 Zrotation Xrotation Yrotation
          End Site
          {
            OFFSET 1.1221 -3.69964 12.103
          }
        }
      }
    }
  }
}
MOTION
Frames:	4
Frame Time:	0.03333
-12.15 62.714400000000005 -9.1816 7.09638 10.292922 12.844636 -18.851252 12.421503 57.788674 -9.369578 -9.237998 -74.323063 5.859649 7.235685 91.746612 -21.282924 2.419451 -109.47467 0.000545 0.0 0.002487 0.000545 0.0 0.002487 -5.825011 24.937302 6.989667 64.915412 -60.018921 59.231166 3.251256 76.981492 78.677957 -9.236575 33.968312 2.301993 -174.193499 -11.857339 89.87005 159.937136 -35.77913 100.702478 -108.427212 34.161053 91.74318 -95.774548 52.617461 71.801213 89.034839 -81.393604 59.758374 -88.798238 63.885332 80.321255 -0.015312 -1.32313 -0.416002 -150.735164 35.181227 165.82791 -44.838811 -48.034076 -43.618393 -126.281869 -30.506464 -125.356626 153.578708 7.46333 -159.320792 135.36637 -40.815197 76.922217 -11.240757 -38.746421 -80.684518 12.063976 -17.826757 5.31085 -3.051077 -3.032428 0.390239 116.145054 -1.981119 -105.253842 -5.229918 -8.932876 2.663507 160.034876 -13.118337 -110.315002 89.834794 60.702392 -81.263136 -80.820257 -77.804687 -52.169093 -0.005981 0.918138 -0.287679 -10.238092 0.209882 0.039542 -8.366248 26.427179 -7.361277 43.483109 -50.819722 43.238442 -0.000562 0.000309 0.000722 60.770492 -62.739575 0.0 -108.995925 24.57262 -76.21892 -55.533347 32.949297 -174.587911 0.001188 -0.000934 -0.0 58.19752 -36.80349 -142.719497 66.137651 -67.700261 -134.550025 96.302762 8.766617 -17.533453
-12.6255 64.97840000000001 -8.4001 7.14487 8.527634 14.507068 -17.331003 6.58848 -110.187394 9.638976 2.093076 91.098491 -12.320764 4.889599 -55.778749 24.866485 4.312308 37.763671 0.001429 0.0 0.000418 -0.004197 -0.0 0.001305 -14.148752 43.061297 15.997565 119.921992 -60.292501 113.247557 179.585732 -81.520552 65.066583 163.17486 -29.949202 141.300765 178.619765 -18.760347 89.038838 -20.867429 -42.854368 -3.003122 -157.328249 -28.2177 122.489405 -61.5006 57.383709 46.498854 -8.416837 20.880365 5.645397 -42.026335 58.555466 36.139062 -0.019777 -1.726026 -0.542655 -155.280519 -1.182532 171.994472 -157.333244 57.246605 -150.50896 -147.990235 10.794862 -141.811384 -4.238613 -44.742759 8.648436 -99.270159 19.378967 -11.222309 177.411823 -62.892266 -76.012532 149.665976 25.122466 -132.153618 -11.509176 -11.487032 0.621892 -1.059224 -7.046534 9.203461 153.452667 -21.068195 -121.743781 171.102301 -34.981616 -117.739583 161.517819 -9.304966 -143.623361 131.998899 49.684188 -120.797823 145.120282 0.26724 179.213543 156.515726 15.309033 -178.978316 77.071434 -51.584911 75.529943 146.285058 11.252396 142.659157 0.006374 0.000646 0.003187 50.646131 -61.784286 -63.422903 -100.51478 -32.32495 -50.745653 133.386867 -33.416601 -152.502688 -179.973814 75.749447 -0.021545 -136.342779 24.117563 180.0 -32.945405 -59.599986 -153.394399 -92.562394 31.841185 7.623252
-12.793099999999999 66.3401 -7.635 7.654654 6.19878 15.058239 -19.589569 4.943486 -87.913341 10.042038 -2.55663 67.703859 -12.56415 6.398529 -66.410921 24.708593 9.172069 49.938118 0.000261 0.0 0.000973 0.000261 0.0 0.000973 -155.717053 -4.925204 162.135924 41.769533 72.37277 -42.736452 32.266419 -45.059616 -88.370706 170.817952 -11.145343 145.150182 6.464554 -6.452304 -0.635462 -75.693413 29.444552 67.164961 -151.35227 -17.159183 121.131922 -87.789589 56.536728 69.286213 23.904875 -61.333643 1.399698 11.239488 -24.955379 -1.437571 -145.117732 0.226574 -179.199585 11.801939 26.40129 -5.990909 -156.454614 54.007155 -150.151793 -42.042318 -48.637009 -41.918308 142.972993 39.431388 -147.38964 81.887299 13.685749 11.970086 -38.261752 48.453686 123.5279 119.41587 45.600539 -103.892883 -2.012963 -1.996468 0.274674 -9.704659 -15.185698 9.141641 162.920103 -37.929584 -122.627619 173.26614 -40.57549 -115.928931 36.035435 51.722905 -29.833256 -10.439749 -21.521072 1.464789 -0.005498 1.772368 -0.556472 156.493903 -20.085515 -174.210135 126.797058 -26.619967 124.513403 146.582822 11.056809 141.854025 -0.005634 0.000856 -0.002817 42.905518 -59.362809 -0.0 -78.520135 43.926242 118.36296 -88.201571 25.634536 -3.611705 179.979581 75.750657 0.013971 -136.895311 37.432848 -180.0 -19.298056 -45.129195 5.97052 141.416065 10.96514 -161.063111
-12.8795 67.0044 -7.2575 7.848975 2.668245 14.436164 -22.794648 6.020764 0.0 -0.848411 -12.338242 -19.740838 6.323648 12.121525 124.145682 -20.199035 14.827348 -132.952993 0.001535 -0.0 -0.002603 -0.003978 0.0 -0.001383 -29.828403 58.184109 32.233619 17.781473 -43.036653 37.888997 -174.062417 -6.735123 70.668308 163.393417 -30.71327 141.048158 -121.365157 30.329757 71.95764 -134.54888 -12.738789 70.441322 37.215782 -57.917825 -0.643535 -155.566119 -12.936593 113.685533 0.236035 -0.689152 -0.129891 -167.31768 -17.310179 144.227848 -145.111785 -0.668609 -178.918443 -150.281691 -35.130026 -173.023147 -111.800459 -40.683373 -109.847343 -146.333872 10.980059 -142.123602 13.330586 41.769022 -15.131487 93.108754 -15.860049 -73.393066 -165.927805 -56.413347 136.795807 16.204998 -39.159796 9.849576 -83.254052 -50.257692 -33.616111 31.900307 5.687942 8.14695 0.328401 0.529686 -0.18613 177.877478 -34.33433 -106.355828 36.036587 51.722998 -29.832327 11.502476 33.747957 -9.361818 0.00939 -0.831446 0.259297 -9.827463 7.251457 -0.879208 156.865751 55.54177 150.327742 24.598693 -39.182958 25.164027 0.0 0.001048 -0.000539 42.360735 -59.504453 -60.691968 -86.829607 -24.366707 8.094316 99.796836 58.784264 8.290279 0.0 0.001048 -0.000539 30.460219 -10.511566 -80.091816 -29.906477 -2.895201 -82.775472 -31.561421 10.541226 -173.993758
